<?xml version="1.0"?><svg width="392" height="551" xmlns="http://www.w3.org/2000/svg">
 <title>rod of asclepius upright</title>

 <metadata id="metadata2842">image/svg+xml</metadata>
 <g>
  <title>Layer 1</title>
  <path stroke-width="2" stroke="#000000" fill="#0a0000" id="path2858" d="m313.596985,487.402008c-2.898987,-4.692017 -4.810974,-9.444 -4.248993,-10.559021c1.330994,-2.642975 9.708008,11.005005 9.600006,15.640015c-0.057007,2.472992 -1.572998,1.035004 -5.351013,-5.080994l0,0zm-36.036987,7.817993c0.820007,-1.712006 3.197998,-4.175995 5.285004,-5.476013c6.27301,-3.906982 16.108002,-19.074982 22.583008,-34.823975c6.608978,-16.076019 6.835999,-29.956024 0.729004,-44.528015c-6.690002,-15.963013 -22.671021,-26.205994 -35.802002,-22.947998c-3.364014,0.834015 -4.826996,-0.459015 -9.940002,-8.790009c-7.046005,-11.47699 -6.543015,-12.122986 9.79599,-12.609985c15.020996,-0.447021 32.591003,5.940979 41.220001,14.988007c7.651001,8.020996 15.221008,24.116974 17.14801,36.459991c2.557983,16.384003 -7.968018,40.484009 -26.878021,61.54599c-8.069977,8.989014 -26.664001,21.453003 -24.140991,16.182007l0,0zm12.563995,-44.545013c-3.406006,-4.454987 -17.053986,-24.893982 -30.328979,-45.419983c-13.275009,-20.526001 -31.565018,-48.381012 -40.64502,-61.899994l-16.509995,-24.580017l7.391998,-3.824982l7.391006,-3.824005l8.228989,14.216003c4.525009,7.819977 14.345001,25.763 21.821014,39.875c7.47699,14.110992 22.098007,40.582001 32.490982,58.825989c18.562012,32.579987 22.400024,42.639008 10.160004,26.631989l0,0zm-65.806992,-43.975983c-30.580002,10.68399 -52.774994,6.35199 -69.533005,-13.570007c-7.285004,-8.660004 -12.134003,-28.492004 -10.253998,-41.940002c2.781006,-19.895996 18.234009,-40.143982 45.462006,-59.571991c23.154999,-16.520996 36.429001,-31.764008 40.365997,-46.355011c1.886993,-6.993988 0.535004,-18.145996 -2.854996,-23.551987c-3.562012,-5.679001 -16.957001,-14.033005 -24.774002,-15.450012c-7.369003,-1.334991 -31.175003,0.419998 -34.658997,2.557007c-1.423004,0.871994 -3.973007,-1.858002 -8.261002,-8.843994l-6.203003,-10.105011l9.826004,-4.548996c30.372986,-14.057999 65.667999,-11.835007 83.817993,5.279007c22.683014,21.389999 21.308014,57.841995 -3.294998,87.37999c-5.279007,6.338989 -16.869995,16.464996 -30.697006,26.819c-17.042999,12.761993 -23.658997,18.787994 -28.422989,25.888c-11.30101,16.843018 -9.851013,38.881989 3.070999,46.681c10.345993,6.244995 22.543991,5.964996 45.576996,-1.042999c1.576996,-0.480011 4.455994,2.643005 8.481995,9.20401l6.095001,9.929993l-6.253998,3.65799c-3.440994,2.012024 -11.311005,5.425018 -17.490005,7.584015l0.001007,0zm-39.540009,-120.165009c-3.132996,-2.73999 -29.962997,-43.274994 -69.411995,-104.871002l-36.212296,-56.541992l13.681496,-8.398003l13.681801,-8.397003l10.890999,19.948997c47.238007,86.529999 68.300003,125.544006 74.219009,137.483002l6.893997,13.902008l-5.873001,4.309998c-3.828003,2.80899 -6.569,3.701996 -7.87001,2.563995l0,0zm-64.519989,-47.595993c-31.334702,13.746994 -60.885204,15.735992 -83.274403,5.608002c-4.4053,-1.993011 -12.579201,-8.347 -18.164101,-14.121002c-17.214761,-17.794998 -21.91535,-34.569 -16.447431,-58.69101c7.39619,-32.627991 23.707931,-49.037994 94.327233,-94.89389c16.937698,-10.997902 31.867691,-21.232605 33.179703,-22.743904c1.312988,-1.511101 8.332001,-3.369698 15.598999,-4.1301c7.26799,-0.760399 15.936996,-2.3466 19.264999,-3.524899c8.64299,-3.059601 9.942993,1.1077 2.345993,7.5144c-9.639999,8.128601 -10.442993,11.094997 -2.873993,10.6031l6.296997,-0.409302l-3.688995,4.812004c-6.828003,8.906494 -15.960007,14.911896 -31.650009,20.811195c-20.756996,7.804802 -65.210197,32.8694 -76.570797,43.174408c-16.148102,14.646988 -27.1404,37.94899 -25.6488,54.369995c1.2285,13.526001 16.996201,28.511993 33.712502,32.042999c13.254196,2.798996 31.289001,-0.591995 45.994095,-8.649994l13.217003,-7.242004l6.737007,12.054001l6.737,12.054001l-7.314011,4.701996c-4.022995,2.585999 -9.322998,5.582993 -11.778992,6.660004l0,0l0,0zm27.325989,-180.753105c-0.554993,-0.905598 -2.077988,-0.991199 -3.382996,-0.190197c-1.304993,0.8009 -2.375992,2.478199 -2.378998,3.7272c-0.003006,1.2491 1.518005,1.334698 3.382996,0.190201c1.863998,-1.144302 2.935013,-2.821602 2.378998,-3.727203zm21.708008,-0.362099c0.001999,-0.975201 4.699997,-4.422298 10.438995,-7.659801c5.740005,-3.237598 10.923004,-6.851299 11.516006,-8.030697c0.595001,-1.179302 1.727997,-1.090401 2.518005,0.197701c1.137985,1.853996 -1.262009,3.897198 -11.519012,9.804199c-7.125992,4.104198 -12.955002,6.663998 -12.953995,5.688599l0,0zm-113.271702,30.528198c-3.281399,-3.623199 -6.758999,-5.084595 -12.139198,-5.101097c-17.1761,-0.052803 -21.1436,-18.951698 -7.113701,-33.885799c12.305401,-13.098202 25.800201,-17.764002 38.168003,-13.196301c9.454498,3.491699 12.846397,10.935699 10.814995,23.732098c-0.958694,6.0406 -0.695297,12.1824 0.586304,13.648502c2.0951,2.397202 0.918396,3.531799 -11.693703,11.273003l-14.023697,8.607697l-4.599003,-5.078102l0,0z" transform="rotate(30.8732, 164.584, 265.648)"/>
 </g>
</svg>